<svg width="154" height="61" viewBox="0 0 154 61" fill="none" xmlns="http://www.w3.org/2000/svg">
<path d="M0.864063 38L6.53406 9.65H12.0641L17.7341 38H12.9391L11.8191 31.455H6.88406L5.72906 38H0.864063ZM7.40906 28.165H11.2591L9.33406 16.265L7.40906 28.165ZM20.5852 38V9.65H25.7652V34.43H32.6252V38H20.5852ZM37.5285 38V27.185L31.7885 9.65H36.6185L40.1185 20.885L43.4085 9.65H48.1335L42.4635 27.185V38H37.5285ZM48.0662 38L53.7362 9.65H59.2662L64.9362 38H60.1412L59.0212 31.455H54.0862L52.9312 38H48.0662ZM54.6112 28.165H58.4612L56.5362 16.265L54.6112 28.165Z" fill="#282A2E"/>
<path d="M70.6223 38V13.465H66.1073V9.65H80.2473V13.465H75.8023V38H70.6223ZM82.8264 38V9.65H89.6164C91.5297 9.65 93.1397 9.88333 94.4464 10.35C95.7764 10.7933 96.7797 11.5633 97.4564 12.66C98.1564 13.7567 98.5064 15.25 98.5064 17.14C98.5064 18.2833 98.4014 19.31 98.1914 20.22C97.9814 21.13 97.6197 21.9117 97.1064 22.565C96.6164 23.195 95.9281 23.685 95.0414 24.035L98.9964 38H93.8164L90.3864 25.015H88.0064V38H82.8264ZM88.0064 21.76H89.6164C90.6197 21.76 91.4131 21.62 91.9964 21.34C92.6031 21.0367 93.0347 20.57 93.2914 19.94C93.5481 19.2867 93.6764 18.4583 93.6764 17.455C93.6764 16.0317 93.4081 14.97 92.8714 14.27C92.3581 13.5467 91.3664 13.185 89.8964 13.185H88.0064V21.76ZM102.446 38V9.65H114.346V13.29H107.626V21.445H112.911V25.05H107.626V34.43H114.416V38H102.446ZM117.416 38V9.65H121.021L127.916 25.82V9.65H132.186V38H128.756L121.826 21.06V38H117.416ZM136.489 38V9.65H143.174C145.484 9.65 147.28 9.965 148.564 10.595C149.87 11.225 150.792 12.1933 151.329 13.5C151.889 14.8067 152.169 16.4633 152.169 18.47V28.83C152.169 30.8833 151.889 32.5983 151.329 33.975C150.792 35.3283 149.882 36.3433 148.599 37.02C147.339 37.6733 145.6 38 143.384 38H136.489ZM141.669 34.395H143.244C144.434 34.395 145.285 34.185 145.799 33.765C146.312 33.345 146.627 32.7383 146.744 31.945C146.86 31.1283 146.919 30.1367 146.919 28.97V18.12C146.919 16.9767 146.837 16.055 146.674 15.355C146.51 14.655 146.172 14.1417 145.659 13.815C145.145 13.4883 144.317 13.325 143.174 13.325H141.669V34.395Z" fill="#B21115"/>
<path d="M2.999 51.688H4.286C4.604 51.688 4.886 51.745 5.132 51.859C5.384 51.967 5.579 52.129 5.717 52.345C5.861 52.555 5.933 52.81 5.933 53.11C5.933 53.41 5.861 53.668 5.717 53.884C5.579 54.094 5.384 54.256 5.132 54.37C4.886 54.478 4.604 54.532 4.286 54.532H2.999V55H4.286C4.694 55 5.057 54.925 5.375 54.775C5.699 54.619 5.954 54.4 6.14 54.118C6.332 53.83 6.428 53.494 6.428 53.11C6.428 52.72 6.332 52.384 6.14 52.102C5.954 51.82 5.699 51.604 5.375 51.454C5.057 51.298 4.694 51.22 4.286 51.22H2.999V51.688ZM2.72 48.7V55H3.215V49.168H5.951V48.7H2.72ZM12.37 48.7H8.25704V52.732C8.25704 52.972 8.23904 53.203 8.20304 53.425C8.16704 53.641 8.11304 53.836 8.04104 54.01C7.96904 54.184 7.88204 54.322 7.78004 54.424C7.67804 54.52 7.55804 54.568 7.42004 54.568V55C7.70204 55 7.93904 54.901 8.13104 54.703C8.32904 54.505 8.47604 54.241 8.57204 53.911C8.67404 53.581 8.72504 53.224 8.72504 52.84V49.168H11.875V55H12.37V48.7ZM14.5449 51.85C14.5449 51.322 14.6559 50.854 14.8779 50.446C15.1059 50.032 15.4149 49.708 15.8049 49.474C16.2009 49.234 16.6509 49.114 17.1549 49.114C17.6589 49.114 18.1059 49.234 18.4959 49.474C18.8919 49.708 19.2009 50.032 19.4229 50.446C19.6449 50.854 19.7559 51.322 19.7559 51.85C19.7559 52.372 19.6449 52.84 19.4229 53.254C19.2009 53.668 18.8919 53.995 18.4959 54.235C18.1059 54.469 17.6589 54.586 17.1549 54.586C16.6509 54.586 16.2009 54.469 15.8049 54.235C15.4149 53.995 15.1059 53.668 14.8779 53.254C14.6559 52.84 14.5449 52.372 14.5449 51.85ZM14.0229 51.85C14.0229 52.312 14.1009 52.741 14.2569 53.137C14.4129 53.527 14.6319 53.869 14.9139 54.163C15.1959 54.451 15.5259 54.676 15.9039 54.838C16.2879 55 16.7049 55.081 17.1549 55.081C17.6049 55.081 18.0189 55 18.3969 54.838C18.7809 54.676 19.1139 54.451 19.3959 54.163C19.6779 53.869 19.8969 53.527 20.0529 53.137C20.2089 52.741 20.2869 52.312 20.2869 51.85C20.2869 51.388 20.2089 50.962 20.0529 50.572C19.8969 50.176 19.6779 49.834 19.3959 49.546C19.1139 49.252 18.7809 49.024 18.3969 48.862C18.0189 48.7 17.6049 48.619 17.1549 48.619C16.7049 48.619 16.2879 48.7 15.9039 48.862C15.5259 49.024 15.1959 49.252 14.9139 49.546C14.6319 49.834 14.4129 50.176 14.2569 50.572C14.1009 50.962 14.0229 51.388 14.0229 51.85ZM21.9972 48.7V55H22.4922V49.168H25.1022V48.7H21.9972ZM29.8846 51.85C29.8846 51.322 29.9956 50.854 30.2176 50.446C30.4456 50.032 30.7546 49.708 31.1446 49.474C31.5406 49.234 31.9906 49.114 32.4946 49.114C32.9986 49.114 33.4456 49.234 33.8356 49.474C34.2316 49.708 34.5406 50.032 34.7626 50.446C34.9846 50.854 35.0956 51.322 35.0956 51.85C35.0956 52.372 34.9846 52.84 34.7626 53.254C34.5406 53.668 34.2316 53.995 33.8356 54.235C33.4456 54.469 32.9986 54.586 32.4946 54.586C31.9906 54.586 31.5406 54.469 31.1446 54.235C30.7546 53.995 30.4456 53.668 30.2176 53.254C29.9956 52.84 29.8846 52.372 29.8846 51.85ZM29.3626 51.85C29.3626 52.312 29.4406 52.741 29.5966 53.137C29.7526 53.527 29.9716 53.869 30.2536 54.163C30.5356 54.451 30.8656 54.676 31.2436 54.838C31.6276 55 32.0446 55.081 32.4946 55.081C32.9446 55.081 33.3586 55 33.7366 54.838C34.1206 54.676 34.4536 54.451 34.7356 54.163C35.0176 53.869 35.2366 53.527 35.3926 53.137C35.5486 52.741 35.6266 52.312 35.6266 51.85C35.6266 51.388 35.5486 50.962 35.3926 50.572C35.2366 50.176 35.0176 49.834 34.7356 49.546C34.4536 49.252 34.1206 49.024 33.7366 48.862C33.3586 48.7 32.9446 48.619 32.4946 48.619C32.0446 48.619 31.6276 48.7 31.2436 48.862C30.8656 49.024 30.5356 49.252 30.2536 49.546C29.9716 49.834 29.7526 50.176 29.5966 50.572C29.4406 50.962 29.3626 51.388 29.3626 51.85ZM44.8052 49.168V55H45.3002V48.7H40.5752V55H41.0702V49.168H44.8052ZM47.4743 51.85C47.4743 51.322 47.5853 50.854 47.8073 50.446C48.0353 50.032 48.3443 49.708 48.7343 49.474C49.1303 49.234 49.5803 49.114 50.0843 49.114C50.5883 49.114 51.0353 49.234 51.4253 49.474C51.8213 49.708 52.1303 50.032 52.3523 50.446C52.5743 50.854 52.6853 51.322 52.6853 51.85C52.6853 52.372 52.5743 52.84 52.3523 53.254C52.1303 53.668 51.8213 53.995 51.4253 54.235C51.0353 54.469 50.5883 54.586 50.0843 54.586C49.5803 54.586 49.1303 54.469 48.7343 54.235C48.3443 53.995 48.0353 53.668 47.8073 53.254C47.5853 52.84 47.4743 52.372 47.4743 51.85ZM46.9523 51.85C46.9523 52.312 47.0303 52.741 47.1863 53.137C47.3423 53.527 47.5613 53.869 47.8433 54.163C48.1253 54.451 48.4553 54.676 48.8333 54.838C49.2173 55 49.6343 55.081 50.0843 55.081C50.5343 55.081 50.9483 55 51.3263 54.838C51.7103 54.676 52.0433 54.451 52.3253 54.163C52.6073 53.869 52.8263 53.527 52.9823 53.137C53.1383 52.741 53.2163 52.312 53.2163 51.85C53.2163 51.388 53.1383 50.962 52.9823 50.572C52.8263 50.176 52.6073 49.834 52.3253 49.546C52.0433 49.252 51.7103 49.024 51.3263 48.862C50.9483 48.7 50.5343 48.619 50.0843 48.619C49.6343 48.619 49.2173 48.7 48.8333 48.862C48.4553 49.024 48.1253 49.252 47.8433 49.546C47.5613 49.834 47.3423 50.176 47.1863 50.572C47.0303 50.962 46.9523 51.388 46.9523 51.85ZM54.9447 48.7V55H55.4397V48.7H54.9447ZM58.0497 48.7L55.2957 51.661L58.1847 55H58.8147L55.9077 51.652L58.6797 48.7H58.0497ZM64.6145 48.7H64.0655L62.1215 52.912L62.4275 52.93L60.4385 48.7H59.8355L61.9685 53.074L61.1045 55H61.6535L64.6145 48.7ZM70.1068 49.168V55H70.6018V48.7H65.8768V55H66.3718V49.168H70.1068ZM72.5959 48.7V55H73.0909V48.7H72.5959ZM75.7009 48.7L72.9469 51.661L75.8359 55H76.4659L73.5589 51.652L76.3309 48.7H75.7009ZM78.7468 52.885H81.9778L81.8158 52.417H78.9088L78.7468 52.885ZM80.3488 49.6L81.5908 52.606L81.6358 52.723L82.5718 55H83.1298L80.3488 48.457L77.5678 55H78.1258L79.0708 52.687L79.1248 52.579L80.3488 49.6ZM87.9102 48.7L86.3982 51.265L84.9132 48.7H84.3192L86.1372 51.697L84.0942 55H84.6882L86.3892 52.138L88.0452 55H88.6392L86.6412 51.697L88.5042 48.7H87.9102ZM93.6656 51.85C93.6656 51.31 93.7796 50.836 94.0076 50.428C94.2356 50.02 94.5416 49.702 94.9256 49.474C95.3096 49.24 95.7386 49.123 96.2126 49.123C96.5066 49.123 96.7766 49.156 97.0226 49.222C97.2686 49.288 97.4936 49.387 97.6976 49.519C97.9016 49.645 98.0816 49.798 98.2376 49.978V49.321C97.9736 49.087 97.6856 48.913 97.3736 48.799C97.0616 48.679 96.6746 48.619 96.2126 48.619C95.7746 48.619 95.3666 48.7 94.9886 48.862C94.6166 49.018 94.2926 49.24 94.0166 49.528C93.7406 49.816 93.5246 50.158 93.3686 50.554C93.2126 50.95 93.1346 51.382 93.1346 51.85C93.1346 52.318 93.2126 52.75 93.3686 53.146C93.5246 53.542 93.7406 53.884 94.0166 54.172C94.2926 54.46 94.6166 54.685 94.9886 54.847C95.3666 55.003 95.7746 55.081 96.2126 55.081C96.6746 55.081 97.0616 55.024 97.3736 54.91C97.6856 54.79 97.9736 54.613 98.2376 54.379V53.713C98.0816 53.893 97.9016 54.049 97.6976 54.181C97.4996 54.313 97.2776 54.412 97.0316 54.478C96.7856 54.544 96.5126 54.577 96.2126 54.577C95.7386 54.577 95.3096 54.46 94.9256 54.226C94.5416 53.992 94.2356 53.671 94.0076 53.263C93.7796 52.855 93.6656 52.384 93.6656 51.85ZM103.938 52.885H107.169L107.007 52.417H104.1L103.938 52.885ZM105.54 49.6L106.782 52.606L106.827 52.723L107.763 55H108.321L105.54 48.457L102.759 55H103.317L104.262 52.687L104.316 52.579L105.54 49.6ZM109.696 48.7V55H112.792V54.532H110.191V48.7H109.696ZM114.199 48.7V55H114.694V48.7H114.199ZM116.987 55H120.11V54.532H116.987V55ZM116.987 49.168H120.11V48.7H116.987V49.168ZM116.987 51.778H119.93V51.31H116.987V51.778ZM116.726 48.7V55H117.221V48.7H116.726ZM125.259 48.7L123.747 51.265L122.262 48.7H121.668L123.486 51.697L121.443 55H122.037L123.738 52.138L125.394 55H125.988L123.99 51.697L125.853 48.7H125.259ZM127.412 48.7V55H127.907V48.7H127.412ZM127.691 49.168H128.888C129.35 49.168 129.725 49.288 130.013 49.528C130.301 49.762 130.445 50.107 130.445 50.563C130.445 51.013 130.301 51.358 130.013 51.598C129.725 51.838 129.35 51.958 128.888 51.958H127.691V52.426H128.888C129.284 52.426 129.635 52.354 129.941 52.21C130.253 52.06 130.499 51.844 130.679 51.562C130.859 51.28 130.949 50.947 130.949 50.563C130.949 50.173 130.859 49.84 130.679 49.564C130.499 49.288 130.253 49.075 129.941 48.925C129.635 48.775 129.284 48.7 128.888 48.7H127.691V49.168ZM133.717 51.994L135.805 55H136.417L134.266 51.994H133.717ZM132.646 48.7V55H133.141V48.7H132.646ZM132.907 49.141H134.086C134.404 49.141 134.686 49.195 134.932 49.303C135.178 49.411 135.37 49.567 135.508 49.771C135.652 49.975 135.724 50.227 135.724 50.527C135.724 50.827 135.655 51.082 135.517 51.292C135.379 51.496 135.184 51.652 134.932 51.76C134.686 51.862 134.404 51.913 134.086 51.913H132.907V52.354H134.086C134.494 52.354 134.857 52.285 135.175 52.147C135.499 52.003 135.754 51.793 135.94 51.517C136.126 51.241 136.219 50.911 136.219 50.527C136.219 50.137 136.126 49.807 135.94 49.537C135.754 49.267 135.499 49.06 135.175 48.916C134.857 48.772 134.494 48.7 134.086 48.7H132.907V49.141ZM138.158 55H141.281V54.532H138.158V55ZM138.158 49.168H141.281V48.7H138.158V49.168ZM138.158 51.778H141.101V51.31H138.158V51.778ZM137.897 48.7V55H138.392V48.7H137.897ZM143.289 53.182L142.884 53.434C142.986 53.728 143.13 54.001 143.316 54.253C143.502 54.505 143.733 54.706 144.009 54.856C144.285 55.006 144.606 55.081 144.972 55.081C145.23 55.081 145.47 55.042 145.692 54.964C145.914 54.88 146.106 54.763 146.268 54.613C146.436 54.457 146.565 54.274 146.655 54.064C146.751 53.854 146.799 53.62 146.799 53.362C146.799 53.086 146.751 52.849 146.655 52.651C146.559 52.447 146.433 52.273 146.277 52.129C146.127 51.985 145.959 51.865 145.773 51.769C145.587 51.673 145.407 51.592 145.233 51.526C144.897 51.406 144.615 51.28 144.387 51.148C144.159 51.01 143.988 50.857 143.874 50.689C143.76 50.521 143.703 50.32 143.703 50.086C143.703 49.804 143.802 49.57 144 49.384C144.198 49.192 144.48 49.096 144.846 49.096C145.122 49.096 145.353 49.15 145.539 49.258C145.725 49.36 145.878 49.489 145.998 49.645C146.124 49.801 146.22 49.96 146.286 50.122L146.718 49.879C146.634 49.675 146.511 49.477 146.349 49.285C146.187 49.093 145.983 48.934 145.737 48.808C145.497 48.682 145.209 48.619 144.873 48.619C144.549 48.619 144.258 48.685 144 48.817C143.742 48.943 143.541 49.123 143.397 49.357C143.253 49.585 143.181 49.849 143.181 50.149C143.181 50.419 143.232 50.65 143.334 50.842C143.442 51.034 143.58 51.199 143.748 51.337C143.916 51.469 144.096 51.583 144.288 51.679C144.486 51.769 144.675 51.847 144.855 51.913C145.095 52.003 145.323 52.108 145.539 52.228C145.761 52.342 145.941 52.492 146.079 52.678C146.217 52.864 146.286 53.11 146.286 53.416C146.286 53.764 146.169 54.052 145.935 54.28C145.707 54.502 145.389 54.613 144.981 54.613C144.681 54.613 144.423 54.55 144.207 54.424C143.991 54.292 143.808 54.118 143.658 53.902C143.514 53.686 143.391 53.446 143.289 53.182ZM148.549 53.182L148.144 53.434C148.246 53.728 148.39 54.001 148.576 54.253C148.762 54.505 148.993 54.706 149.269 54.856C149.545 55.006 149.866 55.081 150.232 55.081C150.49 55.081 150.73 55.042 150.952 54.964C151.174 54.88 151.366 54.763 151.528 54.613C151.696 54.457 151.825 54.274 151.915 54.064C152.011 53.854 152.059 53.62 152.059 53.362C152.059 53.086 152.011 52.849 151.915 52.651C151.819 52.447 151.693 52.273 151.537 52.129C151.387 51.985 151.219 51.865 151.033 51.769C150.847 51.673 150.667 51.592 150.493 51.526C150.157 51.406 149.875 51.28 149.647 51.148C149.419 51.01 149.248 50.857 149.134 50.689C149.02 50.521 148.963 50.32 148.963 50.086C148.963 49.804 149.062 49.57 149.26 49.384C149.458 49.192 149.74 49.096 150.106 49.096C150.382 49.096 150.613 49.15 150.799 49.258C150.985 49.36 151.138 49.489 151.258 49.645C151.384 49.801 151.48 49.96 151.546 50.122L151.978 49.879C151.894 49.675 151.771 49.477 151.609 49.285C151.447 49.093 151.243 48.934 150.997 48.808C150.757 48.682 150.469 48.619 150.133 48.619C149.809 48.619 149.518 48.685 149.26 48.817C149.002 48.943 148.801 49.123 148.657 49.357C148.513 49.585 148.441 49.849 148.441 50.149C148.441 50.419 148.492 50.65 148.594 50.842C148.702 51.034 148.84 51.199 149.008 51.337C149.176 51.469 149.356 51.583 149.548 51.679C149.746 51.769 149.935 51.847 150.115 51.913C150.355 52.003 150.583 52.108 150.799 52.228C151.021 52.342 151.201 52.492 151.339 52.678C151.477 52.864 151.546 53.11 151.546 53.416C151.546 53.764 151.429 54.052 151.195 54.28C150.967 54.502 150.649 54.613 150.241 54.613C149.941 54.613 149.683 54.55 149.467 54.424C149.251 54.292 149.068 54.118 148.918 53.902C148.774 53.686 148.651 53.446 148.549 53.182Z" fill="#282A2E"/>
</svg>
