<svg width="12" height="12" viewBox="0 0 12 12" fill="none" xmlns="http://www.w3.org/2000/svg">
<path d="M5.99973 1.2002C5.26355 1.20016 4.53723 1.35875 3.87697 1.66368C3.2167 1.96862 2.64019 2.41173 2.19202 2.95873C1.74385 3.50573 1.43605 4.14196 1.29242 4.8182C1.14879 5.49444 1.17319 6.19256 1.36373 6.85856C1.55427 7.52456 1.90584 8.14057 2.39124 8.65895C2.87665 9.17733 3.48287 9.58418 4.16302 9.84802C4.84316 10.1119 5.57899 10.2256 6.31359 10.1805C7.04819 10.1354 7.76186 9.93258 8.39938 9.5878L10.4343 10.1901C10.4835 10.2031 10.5356 10.2035 10.5851 10.1914C10.6345 10.1793 10.6797 10.1551 10.7159 10.1212C10.752 10.0873 10.7779 10.045 10.7908 9.9987C10.8038 9.95235 10.8033 9.90362 10.7894 9.8575L10.1559 7.94265C10.5772 7.25933 10.7989 6.48421 10.7989 5.69519C10.7989 4.90617 10.5772 4.13105 10.156 3.44773C9.73475 2.76441 9.12891 2.19697 8.39934 1.80245C7.66977 1.40793 6.84217 1.20022 5.99973 1.2002Z" fill="#B21115"/>
</svg>
