<svg width="16" height="16" viewBox="0 0 16 16" fill="none" xmlns="http://www.w3.org/2000/svg">
<path fill-rule="evenodd" clip-rule="evenodd" d="M3.93995 1.11408C2.94401 1.23914 2.11083 1.64851 1.40326 2.36054C0.770233 2.99754 0.388952 3.67301 0.16739 4.55008C-0.21736 6.07308 0.0623895 7.57273 0.993921 8.9807C1.59123 9.88348 2.36151 10.7121 3.77826 11.9759C4.67948 12.7797 7.42617 15.123 7.55951 15.2017C7.68514 15.2758 7.73183 15.4097 7.99701 15.4097C8.26205 15.4097 8.30898 15.2758 8.43451 15.2018C8.56823 15.123 11.3211 12.7742 12.2158 11.9756C13.6364 10.7075 14.4036 9.88226 15.0001 8.9807C15.9316 7.57273 16.2114 6.07308 15.8266 4.55008C15.6051 3.67301 15.2238 2.99754 14.5908 2.36054C13.96 1.72576 13.2846 1.35945 12.3993 1.17186C11.9571 1.07814 11.138 1.06995 10.7487 1.15529C9.66964 1.39186 8.84002 1.93308 8.08295 2.89429L7.99701 3.00342L7.91108 2.89429C7.1672 1.94979 6.35017 1.40864 5.30951 1.17114C4.99889 1.10026 4.28651 1.07058 3.93995 1.11408Z" fill="white"/>
</svg>
