<svg width="28" height="28" viewBox="0 0 28 28" fill="none" xmlns="http://www.w3.org/2000/svg">
<path fill-rule="evenodd" clip-rule="evenodd" d="M19.0524 0.0351393C17.5717 0.143102 15.9675 0.462824 14.5077 0.941008C13.5971 1.23924 14.0256 0.873456 9.88617 4.88634C8.57836 6.15421 6.5672 8.15396 5.41693 9.33026C3.41707 11.3754 0.549634 14.3668 0.176466 14.7973L0 15.001L0.0607049 15.5375C0.423399 18.7427 1.82109 21.65 4.08982 23.9185C6.01971 25.8481 8.47554 27.1839 11.085 27.7233C11.5483 27.8191 12.7824 28 12.9724 28C13.146 28 19.2763 22.0657 22.2922 18.9782C24.9351 16.2724 26.5472 14.5867 26.6992 14.3699C27.0262 13.9034 27.6113 11.7868 27.8362 10.2566C28.2109 7.70769 27.9339 4.82652 27.0954 2.55256C26.6758 1.41486 26.3951 1.18704 24.8161 0.702546C23.0166 0.150504 20.8736 -0.0976622 19.0524 0.0351393ZM23.1054 3.11343C24.0296 3.30967 24.7361 4.05323 24.9156 5.0186C25.0392 5.68293 24.784 6.44964 24.2674 6.9662C22.9538 8.27963 20.7416 7.56929 20.4018 5.72499C20.1178 4.18384 21.5645 2.7863 23.1054 3.11343ZM16.2841 8.04282C16.436 8.13537 16.6235 8.42642 16.6235 8.56953C16.6235 8.59053 16.3153 8.91913 15.9386 9.29983L15.2537 9.99196L15.6355 10.3708L16.0173 10.7496L16.4243 10.3551C16.6794 10.1077 16.8763 9.96049 16.9522 9.96049C17.1058 9.96049 17.4461 10.2966 17.4461 10.4483C17.4461 10.5159 17.2839 10.734 17.0527 10.9774L16.6593 11.3915L17.037 11.7721L17.4146 12.1526L18.1068 11.4678C18.4876 11.0911 18.8162 10.783 18.8372 10.783C19.0767 10.783 19.4743 11.1567 19.4749 11.3824C19.4751 11.483 17.6895 13.2867 17.4813 13.3962C17.3951 13.4415 17.2718 13.4652 17.2071 13.4487C17.0464 13.4079 13.9365 10.2819 13.9365 10.1612C13.9365 10.1081 13.9716 9.9981 14.0144 9.91662C14.1209 9.71441 15.9259 7.93167 16.024 7.93195C16.0672 7.93206 16.1843 7.98196 16.2841 8.04282ZM13.003 13.8807L14.3502 15.2239L14.9238 14.6483C15.2425 14.3286 15.5429 14.0728 15.5996 14.0728C15.8459 14.0728 16.1848 14.4116 16.1848 14.6577C16.1848 14.7161 15.8168 15.1268 15.3211 15.6213C14.6578 16.2833 14.4152 16.4916 14.2753 16.5194C14.0964 16.5549 14.0656 16.528 12.5049 14.9715C11.6313 14.1003 10.9025 13.3324 10.8854 13.2652C10.8224 13.0176 11.2562 12.5376 11.543 12.5376C11.617 12.5376 12.1182 12.9986 13.003 13.8807ZM10.9386 16.2436C11.9993 16.8043 12.9103 17.3128 12.9631 17.3737C13.016 17.4347 13.0591 17.5259 13.0591 17.5765C13.0591 17.748 12.8132 18.1563 12.6598 18.2395C12.5137 18.3188 12.4884 18.3121 12.0637 18.0832L11.6202 17.8442L11.1361 18.326L10.652 18.8078L10.8811 19.2307C11.0792 19.5961 11.103 19.6747 11.0558 19.8087C10.9384 20.1426 10.3389 20.3453 10.1411 20.118C10.0952 20.0652 9.59499 19.1509 9.02956 18.0863C7.89991 15.959 7.91675 16.0099 8.21281 15.6217C8.39252 15.3862 8.65338 15.2248 8.85479 15.2245C8.95076 15.2244 9.74628 15.6134 10.9386 16.2436ZM9.75171 17.2669C9.98027 17.6664 10.177 18.0042 10.1889 18.0176C10.2007 18.0309 10.3568 17.897 10.5358 17.7199L10.8611 17.398L10.2465 17.0465C9.22889 16.4645 9.27967 16.4419 9.75171 17.2669ZM6.45259 18.2741C6.62774 18.4631 6.68132 18.7494 6.57252 18.9153C6.52695 18.9849 6.3943 19.0704 6.27772 19.1053C5.87346 19.2264 5.43673 19.656 5.43673 19.9324C5.43673 20.0992 5.58167 20.2688 5.72419 20.2688C5.78248 20.2688 6.11792 20.1674 6.4697 20.0434C7.50042 19.6803 8.02231 19.723 8.58467 20.2167C9.05807 20.6323 9.19857 21.3868 8.91029 21.9652C8.50011 22.7883 7.2689 23.4726 6.77745 23.1507C6.50809 22.9742 6.40686 22.4709 6.60729 22.3046C6.64397 22.2741 6.85504 22.2115 7.07631 22.1653C7.51501 22.0738 7.79682 21.9007 7.93188 21.6395C8.05631 21.3989 8.03465 21.225 7.86345 21.0904C7.6764 20.9433 7.49987 20.965 6.72102 21.2311C5.83096 21.5352 5.31285 21.4903 4.84613 21.0687C4.17345 20.4611 4.28816 19.4736 5.12098 18.7026C5.71843 18.1495 6.19502 17.9962 6.45259 18.2741Z" fill="#B21115"/>
</svg>
