<svg width="28" height="28" viewBox="0 0 28 28" fill="none" xmlns="http://www.w3.org/2000/svg">
<path fill-rule="evenodd" clip-rule="evenodd" d="M9.75589 0.0975153C9.68214 0.149203 9.5907 0.285703 9.55264 0.400828C9.49282 0.582078 9.50901 0.679141 9.67289 1.12358C10.0588 2.17027 10.1992 2.84439 10.2011 3.65983C10.2029 4.38989 10.1965 4.42564 9.95964 5.00358C9.52264 6.07027 9.58064 6.95665 10.1789 8.3534C10.8673 9.96021 10.8533 10.831 10.1089 12.6993C9.06339 15.3236 6.38426 19.5598 3.39132 23.3212C2.69376 24.1979 2.65232 24.271 2.70232 24.5377C2.75095 24.7967 2.92651 24.9467 3.78426 25.4615C5.6782 26.5984 7.61689 27.3785 9.57164 27.7902C10.6916 28.026 12.4662 28.0704 13.5184 27.8887C14.4766 27.7234 15.1644 27.4965 15.9872 27.0745C16.3481 26.8894 16.9339 26.5881 17.2888 26.4049C18.5023 25.7787 19.781 25.3528 21.2372 25.0898C21.8253 24.9836 23.6662 24.9337 24.5013 25.0014C24.9106 25.0345 25.155 24.9065 25.255 24.6065C25.3448 24.337 25.2761 24.197 24.6968 23.4687C22.1615 20.2815 19.8705 16.8285 18.5746 14.241C17.6786 12.452 17.2991 11.3117 17.3006 10.4125C17.3018 9.7019 17.4123 9.23103 17.7717 8.40565C18.3899 6.9859 18.4554 6.09046 18.0204 5.00358C17.6087 3.97508 17.6489 3.10089 18.1821 1.48902C18.4835 0.577891 18.4909 0.382891 18.2324 0.165391C17.9981 -0.0317972 17.6928 -0.0466097 17.4703 0.128391C17.1954 0.344703 16.6897 1.93883 16.5404 3.05958L16.4678 3.60539L16.0805 3.74433C15.578 3.92452 14.7761 4.42015 14.3356 4.82271L13.9872 5.14115L13.6388 4.82271C13.1974 4.41927 12.3961 3.92439 11.8908 3.74321L11.5005 3.60321L11.4584 3.22527C11.3435 2.19077 10.8231 0.458203 10.5424 0.175453C10.3456 -0.0227972 9.97945 -0.0590474 9.75589 0.0975153Z" fill="#B21115"/>
</svg>
