<svg width="28" height="28" viewBox="0 0 28 28" fill="none" xmlns="http://www.w3.org/2000/svg">
<path fill-rule="evenodd" clip-rule="evenodd" d="M13.0934 6.69731C12.2132 6.91042 11.2194 7.69442 10.7975 8.5085C10.5456 8.99456 10.3778 9.63135 10.3778 10.1011C10.3778 10.3812 10.4067 10.506 10.5137 10.6887C10.779 11.1413 11.3897 11.2778 11.8224 10.9813C12.0843 10.8019 12.1866 10.5984 12.2418 10.1475C12.3084 9.60356 12.5624 9.11263 12.9151 8.84636C13.8288 8.15664 15.0848 8.46727 15.5631 9.50119C15.6773 9.74821 15.7058 9.8922 15.7052 10.2202C15.7042 10.713 15.5819 11.0242 15.2454 11.3892C14.9517 11.7078 14.6505 11.8503 14.0734 11.9437C13.5227 12.0328 13.4384 12.0724 13.2375 12.3357L13.0848 12.5356L13.0575 13.8799L13.0301 15.2241L12.7567 15.2377C12.6063 15.2452 12.1141 15.2892 11.6629 15.3355C8.15043 15.696 4.83964 16.8491 2.11998 18.6589C1.18001 19.2845 0.498715 19.8316 0.315731 20.1078C-0.314324 21.0591 0.0326683 22.3505 1.05357 22.8537C1.28862 22.9696 1.40385 22.9886 1.87389 22.9891C2.47315 22.9898 2.67282 22.9212 3.1317 22.5567C7.38229 19.181 13.8088 18.0814 19.4012 19.7729C21.3928 20.3753 23.4489 21.426 24.8426 22.5535C25.2938 22.9185 25.4993 22.9898 26.1004 22.9898C26.6198 22.9898 26.6648 22.9803 26.9937 22.802C27.9772 22.2688 28.2768 21.0411 27.6532 20.0997C27.5312 19.9154 27.2451 19.6621 26.6974 19.2531C23.8005 17.0901 20.2296 15.7434 16.3114 15.3365C15.8602 15.2896 15.368 15.2452 15.2176 15.2377L14.9442 15.2241V14.4657V13.7073L15.2997 13.5754C16.3638 13.1803 17.2582 12.1389 17.5095 11.0024C17.7819 9.77036 17.434 8.58588 16.531 7.67042C16.1627 7.29717 16.0095 7.18638 15.5731 6.9778C15.2874 6.84119 14.9231 6.70278 14.7638 6.67013C14.3673 6.58903 13.4811 6.60346 13.0934 6.69731Z" fill="#B21115"/>
</svg>
