<svg width="28" height="28" viewBox="0 0 28 28" fill="none" xmlns="http://www.w3.org/2000/svg">
<path fill-rule="evenodd" clip-rule="evenodd" d="M16.619 0.0473C16.3857 0.184948 15.7756 0.691847 15.2455 1.18857C13.8757 2.47203 12.8107 3.91578 11.9692 5.63024C11.0051 7.59434 10.6079 9.54488 10.4863 12.9132L10.4499 13.9173L10.2532 13.8632C9.84914 13.7519 9.49941 13.5228 9.07214 13.0894C8.39681 12.4043 7.98381 11.5932 7.65382 10.3038C7.44475 9.48669 7.3392 9.33701 6.9722 9.33701C6.55455 9.33701 5.64586 10.1244 5.0904 10.9676C4.02542 12.584 3.51463 14.6079 3.50052 17.2667C3.49352 18.5879 3.55428 19.1323 3.82192 20.1477C4.78218 23.7908 7.66137 26.6699 11.3044 27.6302C12.2377 27.8762 12.8827 27.9549 13.9667 27.9549C15.3713 27.9549 16.3879 27.7732 17.6854 27.2902C20.4341 26.267 22.7461 23.9511 23.7785 21.1868C24.3373 19.6907 24.5357 18.2752 24.4163 16.6378C24.273 14.6721 23.8888 13.1547 23.1262 11.5418C22.5085 10.2351 22.013 9.45448 20.3388 7.14984C19.1124 5.46158 18.7375 4.88791 18.3374 4.08701C17.8188 3.04877 17.5662 2.12198 17.4756 0.924761C17.4336 0.370066 17.4144 0.291206 17.292 0.168706C17.1348 0.0115891 16.7862 -0.0513563 16.619 0.0473ZM15.1298 17.8425C15.2058 17.992 15.582 18.5819 15.9659 19.1534C16.7345 20.2976 17.0737 20.9511 17.2436 21.6144C17.5827 22.9384 17.5287 23.8108 17.0458 24.8136C16.8374 25.2463 16.7214 25.4067 16.3519 25.7732C15.6405 26.4785 14.8967 26.7982 13.9667 26.7982C13.0367 26.7982 12.2928 26.4785 11.5815 25.7732C11.2122 25.407 11.0957 25.2459 10.8872 24.8136C10.549 24.1123 10.4409 23.5608 10.484 22.7573C10.5161 22.1585 10.6337 21.5038 10.7656 21.19L10.833 21.0298L10.9725 21.2674C11.2205 21.69 11.5477 22.0116 11.9051 22.1839C12.5078 22.4746 13.0274 22.4593 13.2347 22.1448C13.3139 22.0245 13.3392 21.82 13.3712 21.0401C13.4134 20.0131 13.4757 19.5396 13.6483 18.9347C13.78 18.4732 14.1877 17.6773 14.5134 17.2459L14.7512 16.931L14.8714 17.2508C14.9375 17.4267 15.0538 17.693 15.1298 17.8425Z" fill="#B21115"/>
</svg>
