<svg width="42" height="18" viewBox="0 0 42 18" fill="none" xmlns="http://www.w3.org/2000/svg">
<g clip-path="url(#clip0_3648_1201)">
<path d="M39.8458 17.1819L33.6232 0.0113305L33.6189 0H33.4961L32.2147 3.52852L29.8819 9.95221L29.8764 9.94713C29.0679 9.23213 27.9272 8.78516 26.4907 8.61871L26.0525 8.57339L26.4872 8.51752C28.8562 8.09086 30.4487 6.59131 30.4487 4.78466C30.4487 2.30716 28.1237 0.577865 24.7933 0.577865H17.8639V0.703284H19.8775V13.505L14.9873 0.0113305L14.983 0H14.8602L13.5788 3.52852L8.63648 17.1378L8.60607 17.1413C8.52159 17.1517 8.43805 17.1601 8.3554 17.1663C8.23104 17.1761 8.10747 17.1819 7.9835 17.1819H2.98967L12.4822 0.70328L12.5528 0.579425H0.943019V5.67704H1.06621C1.08804 3.19407 2.53083 0.703281 5.71854 0.703281H9.56429L0 17.3054H12.8849V12.4215H12.7617C12.745 14.5857 11.5209 16.6412 8.85907 17.1054L8.77448 17.1198L10.8016 11.5354H16.4804L18.5267 17.1819H16.5081V17.3054H24.4308V17.1819H22.4036V8.66442H24.7426C27.123 8.66442 28.4882 9.73028 28.4882 11.5877V13.0986C28.4882 13.2651 28.4995 13.5085 28.512 13.712V13.7195L27.2548 17.1812H25.6124V17.3046H29.0121V17.1812H27.3873L28.5323 14.0289C28.5346 14.0594 28.5358 14.0777 28.5358 14.0777L28.5673 14.3618L28.5977 14.5497C28.7888 15.7121 29.2324 16.5666 29.9158 17.0893L30.014 17.1608C30.5333 17.5226 31.1785 17.7059 31.9328 17.7059C32.932 17.7059 33.5982 17.4562 34.1483 16.8686L34.0761 16.8006C33.5694 17.2695 33.144 17.4593 32.6111 17.4593C31.7032 17.4593 31.228 16.3556 31.228 15.2671V13.1502C31.2328 12.6249 31.1508 12.1025 30.9851 11.6041L30.9625 11.5385V11.5362H35.1162L37.1625 17.1827H35.1439V17.3062H42V17.1827L39.8458 17.1819ZM10.8469 11.4119L13.6443 3.70903L16.4356 11.4119H10.8469ZM22.4048 8.54057V0.703281H24.1902C26.5753 0.703281 27.8344 2.1243 27.8344 4.81122C27.8344 7.66889 27.1117 8.54057 24.7426 8.54057H22.4048ZM30.9142 11.4119L30.9021 11.3814C30.7175 10.9309 30.4488 10.5198 30.1103 10.1702L29.9934 10.053L29.9809 10.0413L32.2786 3.70903L35.0698 11.4119H30.9142Z" fill="#B21115"/>
</g>
<defs>
<clipPath id="clip0_3648_1201">
<rect width="42" height="17.7059" fill="white"/>
</clipPath>
</defs>
</svg>
