<svg width="18" height="18" viewBox="0 0 18 18" fill="none" xmlns="http://www.w3.org/2000/svg">
<path d="M8.21283 2.07666C4.82971 2.07666 2.07715 4.82922 2.07715 8.21235C2.07715 11.5957 4.82971 14.348 8.21283 14.348C11.5962 14.348 14.3485 11.5957 14.3485 8.21235C14.3485 4.82922 11.5962 2.07666 8.21283 2.07666ZM8.21283 13.2153C5.45423 13.2153 3.20989 10.971 3.20989 8.21237C3.20989 5.45377 5.45423 3.2094 8.21283 3.2094C10.9714 3.2094 13.2158 5.45374 13.2158 8.21235C13.2158 10.9709 10.9714 13.2153 8.21283 13.2153Z" fill="#B21115"/>
<path d="M15.8439 15.0425L12.5967 11.7953C12.3754 11.5741 12.0171 11.5741 11.7958 11.7953C11.5746 12.0164 11.5746 12.3751 11.7958 12.5962L15.043 15.8434C15.1537 15.954 15.2985 16.0094 15.4435 16.0094C15.5883 16.0094 15.7333 15.954 15.8439 15.8434C16.0652 15.6223 16.0652 15.2636 15.8439 15.0425Z" fill="#B21115"/>
</svg>
