<svg width="14" height="14" viewBox="0 0 14 14" fill="none" xmlns="http://www.w3.org/2000/svg">
<g clip-path="url(#clip0_3648_1143)">
<path fill-rule="evenodd" clip-rule="evenodd" d="M10.7242 13.2878C10.9121 13.4208 11.1541 13.4541 11.37 13.3724C11.5858 13.2902 11.7445 13.1058 11.7923 12.8824C12.2992 10.5001 13.5289 4.47017 13.9903 2.30309C14.0253 2.13975 13.967 1.97 13.8386 1.86092C13.7103 1.75184 13.5324 1.72034 13.3737 1.77925C10.9278 2.68459 3.39523 5.51084 0.316399 6.65009C0.120982 6.72242 -0.00618458 6.91025 0.000232081 7.11617C0.00723208 7.32267 0.146065 7.50175 0.346149 7.56184C1.7269 7.97484 3.53931 8.54942 3.53931 8.54942C3.53931 8.54942 4.38631 11.1073 4.8279 12.4082C4.88331 12.5715 5.01106 12.6998 5.17965 12.7442C5.34765 12.7879 5.52731 12.7418 5.65273 12.6234C6.36206 11.9538 7.45873 10.9183 7.45873 10.9183C7.45873 10.9183 9.5424 12.4461 10.7242 13.2878ZM4.30173 8.22625L5.28115 11.4568L5.49873 9.411C5.49873 9.411 9.28281 5.99792 11.44 4.0525C11.503 3.99534 11.5117 3.89967 11.4592 3.83259C11.4073 3.7655 11.3116 3.74975 11.2399 3.79525C8.73973 5.39184 4.30173 8.22625 4.30173 8.22625Z" fill="white"/>
</g>
<defs>
<clipPath id="clip0_3648_1143">
<rect width="14" height="14" fill="white"/>
</clipPath>
</defs>
</svg>
