<svg width="16" height="16" viewBox="0 0 16 16" fill="none" xmlns="http://www.w3.org/2000/svg">
<g clip-path="url(#clip0_3867_1393)">
<path d="M8.77467 12.6623C9.18067 12.6623 9.34667 12.3917 9.342 12.0523C9.32133 10.7743 9.818 10.0863 10.7147 10.983C11.7067 11.975 11.912 12.6623 13.1167 12.6623H15.25C15.7887 12.6623 16.0007 12.489 16.0007 12.217C16.0007 11.6417 15.0533 10.6263 14.2507 9.88101C13.1267 8.83767 13.074 8.81301 14.042 7.55701C15.2427 5.99767 16.8133 3.99967 15.424 3.99967H12.77C12.2553 3.99967 12.218 4.28967 12.0347 4.72167C11.3713 6.28634 10.1107 8.31301 9.632 8.00301C9.13133 7.67967 9.36067 6.39901 9.39867 4.49567C9.40867 3.99301 9.406 3.64834 8.638 3.46967C8.21867 3.37301 7.81067 3.33301 7.432 3.33301C5.91667 3.33301 4.87133 3.96834 5.46533 4.07901C6.51267 4.27434 6.412 6.54034 6.168 7.51901C5.74267 9.22301 4.144 6.16967 3.478 4.64901C3.31733 4.28367 3.268 3.99967 2.69467 3.99967H0.524667C0.196667 3.99967 0 4.10634 0 4.34367C0 4.74501 1.97333 8.82367 3.85733 10.857C5.69467 12.8403 7.51067 12.6623 8.77467 12.6623Z" fill="#B21115"/>
</g>
<defs>
<clipPath id="clip0_3867_1393">
<rect width="16" height="16" fill="white"/>
</clipPath>
</defs>
</svg>
