<svg width="14" height="14" viewBox="0 0 14 14" fill="none" xmlns="http://www.w3.org/2000/svg">
<g clip-path="url(#clip0_3665_4)">
<path d="M7.67783 11.0797C8.03308 11.0797 8.17833 10.8428 8.17425 10.5459C8.15617 9.42767 8.59075 8.82567 9.37533 9.61026C10.2433 10.4783 10.423 11.0797 11.4771 11.0797H13.3438C13.8151 11.0797 14.0006 10.928 14.0006 10.69C14.0006 10.1866 13.1717 9.29817 12.4693 8.646C11.4858 7.73309 11.4397 7.7115 12.2867 6.6125C13.3373 5.24809 14.7117 3.49984 13.496 3.49984H11.1737C10.7234 3.49984 10.6908 3.75359 10.5303 4.13159C9.94992 5.50067 8.84683 7.274 8.428 7.00275C7.98992 6.71984 8.19058 5.59925 8.22383 3.93384C8.23258 3.494 8.23025 3.19242 7.55825 3.03609C7.19133 2.9515 6.83433 2.9165 6.503 2.9165C5.17708 2.9165 4.26242 3.47242 4.78217 3.56925C5.69858 3.74017 5.6105 5.72292 5.397 6.57925C5.02483 8.07025 3.626 5.39859 3.04325 4.068C2.90267 3.74834 2.8595 3.49984 2.35783 3.49984H0.459083C0.172083 3.49984 0 3.59317 0 3.80084C0 4.152 1.72667 7.72084 3.37517 9.5C4.98283 11.2354 6.57183 11.0797 7.67783 11.0797Z" fill="white"/>
</g>
<defs>
<clipPath id="clip0_3665_4">
<rect width="14" height="14" fill="white"/>
</clipPath>
</defs>
</svg>
